<?xml version="1.0" encoding="utf-8"?>
<!-- Generator: Adobe Illustrator 22.1.0, SVG Export Plug-In . SVG Version: 6.00 Build 0)  -->
<svg version="1.1" id="Layer_1" xmlns="http://www.w3.org/2000/svg" xmlns:xlink="http://www.w3.org/1999/xlink" x="0px" y="0px"
	 viewBox="0 0 84 84" style="enable-background:new 0 0 84 84;" xml:space="preserve">
<style type="text/css">
	.st0{fill:#BFBB50;}
</style>
<g id="_x32_-2">
	<path class="st0" d="M74.1,30.3c-0.4-0.2-1-0.2-1.4-0.2l1,0.8c1,0.6,1.2,1.6,1,2.6c-0.4,0.8-1.2,1.8-3.2,1.8
		c-6,0.4-10.6-5.4-14.8-9c-1.8-1.6-3.6-3-5.2-3.8c-2.4-1.2-6.2-1.6-9,0.2c-2.8-1.6-6.6-1.4-9-0.2c-1.6,0.8-3.4,2.4-5.2,3.8
		c-4,3.4-8.8,9.4-14.8,9c-1.8-0.2-2.8-1-3.2-1.8c-0.4-1,0-1.8,1-2.6l1.2-0.8c-0.6,0-1,0.2-1.6,0.2c-1.4,0.6-2.4,1.8-2.4,3.4
		c0,3.8,4,7.8,10,5.8c2,2,16,4,24-6.2c8,10.2,22,8.2,24,6.2c6,2,10-2,10-5.8C76.5,32.1,75.5,30.9,74.1,30.3z"/>
</g>
</svg>
