<?xml version="1.0" encoding="utf-8"?>
<!-- Generator: Adobe Illustrator 22.1.0, SVG Export Plug-In . SVG Version: 6.00 Build 0)  -->
<svg version="1.1" id="Layer_1" xmlns="http://www.w3.org/2000/svg" xmlns:xlink="http://www.w3.org/1999/xlink" x="0px" y="0px"
	 viewBox="0 0 84 84" style="enable-background:new 0 0 84 84;" xml:space="preserve">
<style type="text/css">
	.st0{fill:#BFBB50;}
</style>
<g id="_x34_-1">
	<path id="shape_3_" class="st0" d="M20.1,39.7c0.5-4.7,2.4-8.9,5.4-12.2l-0.9-2c-3.7,3.9-6.1,9-6.5,14.7L10,42h32l-6-6L20.1,39.7z
		 M25.5,56.6c-2.9-3.3-4.9-7.6-5.4-12.2L18,43.9c0.4,5.7,2.9,10.8,6.6,14.7L24,60l12-12l-6-1.4L25.5,56.6z M56.6,58.5
		c-3.3,2.9-7.6,4.9-12.2,5.4L43.9,66c5.7-0.4,10.8-2.9,14.7-6.6L60,60L48,48l-1.4,6L56.6,58.5z M39.7,63.9
		c-4.7-0.5-8.9-2.4-12.2-5.4l-2,0.9c3.9,3.7,9,6.1,14.7,6.5L42,74V42l-6,6L39.7,63.9z M27.4,25.5c3.3-2.9,7.6-4.9,12.2-5.4l0.5-2.1
		c-5.7,0.4-10.8,2.9-14.7,6.6L24,24l12,12l1.4-6L27.4,25.5z M58.5,27.4c2.9,3.3,4.9,7.6,5.4,12.2l2.1,0.5
		c-0.4-5.7-2.9-10.8-6.6-14.7L60,24L48,36l6,1.4L58.5,27.4z M59.4,58.6c3.7-3.9,6.1-9,6.5-14.7L74,42H42l6,6l15.9-3.7
		c-0.5,4.7-2.4,8.9-5.4,12.2L59.4,58.6z M44.3,20.1c4.7,0.5,8.9,2.4,12.2,5.4l2-0.9c-3.9-3.7-9-6.1-14.7-6.5L42,10v32l6-6L44.3,20.1
		z"/>
</g>
</svg>
