<?xml version="1.0" encoding="utf-8"?>
<!-- Generator: Adobe Illustrator 22.1.0, SVG Export Plug-In . SVG Version: 6.00 Build 0)  -->
<svg version="1.1" id="Layer_1" xmlns="http://www.w3.org/2000/svg" xmlns:xlink="http://www.w3.org/1999/xlink" x="0px" y="0px"
	 viewBox="0 0 84 84" style="enable-background:new 0 0 84 84;" xml:space="preserve">
<style type="text/css">
	.st0{fill:#BFBB50;}
</style>
<g id="_x33_-2">
	<path class="st0" d="M42.5,14.5c15.4,0,28,12.6,28,28s-12.6,28-28,28s-28-12.6-28-28c0-3,0.5-6,1.5-8.9
		C19.8,22.2,30.5,14.5,42.5,14.5 M42.5,12.5c-13.2,0-24.4,8.6-28.4,20.5l0,0c-1,3-1.6,6.2-1.6,9.5c0,16.5,13.5,30,30,30
		s30-13.5,30-30S59,12.5,42.5,12.5L42.5,12.5z"/>
</g>
</svg>
