<?xml version="1.0" encoding="utf-8"?>
<!-- Generator: Adobe Illustrator 22.1.0, SVG Export Plug-In . SVG Version: 6.00 Build 0)  -->
<svg version="1.1" id="Layer_1" xmlns="http://www.w3.org/2000/svg" xmlns:xlink="http://www.w3.org/1999/xlink" x="0px" y="0px"
	 viewBox="0 0 84 84" style="enable-background:new 0 0 84 84;" xml:space="preserve">
<style type="text/css">
	.st0{fill:#BFBB50;}
</style>
<g id="_x33_-3">
	<path class="st0" d="M72,42.9L72,42.9L72,42.9c1.1,0,2-1,1.9-2.1c0-0.7-0.1-1.4-0.1-2.1c-0.1-1.1-1.1-1.9-2.2-1.8l0,0l0,0
		c1.1-0.2,1.7-1.3,1.5-2.4c-0.2-0.7-0.3-1.4-0.6-2.1c-0.3-1.1-1.4-1.7-2.5-1.3h-0.1H70c1-0.5,1.4-1.6,1-2.6c-0.3-0.7-0.6-1.3-1-1.9
		c-0.5-1-1.7-1.3-2.7-0.8c0,0,0,0-0.1,0c0,0,0,0,0.1,0c0.9-0.7,1.1-1.9,0.4-2.8c-0.4-0.6-0.9-1.1-1.3-1.7c-0.7-0.8-2-1-2.8-0.2l0,0
		l0,0c0.7-0.8,0.7-2.1-0.1-2.8c-0.5-0.5-1.1-0.9-1.6-1.4c-0.9-0.7-2.1-0.5-2.8,0.3l0,0l0,0c0.6-0.9,0.3-2.2-0.7-2.7
		c-0.6-0.4-1.2-0.7-1.9-1c-1-0.5-2.2-0.1-2.7,0.9l0,0l0,0c0.4-1-0.2-2.2-1.2-2.6c-0.7-0.2-1.3-0.5-2-0.6c-1.1-0.3-2.2,0.3-2.5,1.4
		l0,0l0,0c0.2-1.1-0.6-2.1-1.7-2.3c-0.7-0.1-1.4-0.2-2.1-0.2c-1.1-0.1-2.1,0.7-2.1,1.8l0,0l0,0c-0.1-1.1-1-1.9-2.1-1.9
		c-0.7,0-1.4,0.1-2.1,0.2c-1.1,0.1-1.9,1.1-1.7,2.2c0,0,0,0,0,0.1l0,0c-0.3-1.1-1.4-1.7-2.4-1.4c-0.7,0.2-1.4,0.4-2,0.6
		c-1,0.4-1.6,1.5-1.3,2.5c0,0,0,0,0,0.1c0,0,0,0,0-0.1c-0.5-1-1.7-1.4-2.7-0.9c-0.6,0.3-1.3,0.7-1.9,1c-1,0.6-1.3,1.8-0.7,2.7
		c0,0,0,0,0,0.1l0,0c-0.7-0.9-1.9-1-2.8-0.4c-0.6,0.4-1.1,0.9-1.6,1.4c-0.8,0.7-0.9,2-0.2,2.8l0,0l0,0c-0.8-0.7-2.1-0.6-2.8,0.2
		c-0.5,0.5-0.9,1.1-1.3,1.7c-0.7,0.9-0.5,2.1,0.4,2.8l0,0l0,0c-1-0.5-2.2-0.2-2.7,0.8c-0.3,0.6-0.7,1.2-1,1.9
		c-0.5,1-0.1,2.2,0.9,2.7l0,0c0,0,0,0-0.1,0c-1-0.3-2.2,0.2-2.5,1.3c-0.2,0.7-0.4,1.4-0.6,2c-0.3,1.1,0.4,2.2,1.5,2.4l0,0l0,0
		c-1.1-0.1-2.1,0.7-2.2,1.8c-0.1,0.7-0.1,1.4-0.2,2.1c-0.1,1.1,0.8,2,1.9,2.1l0,0c0,0,0,0-0.1,0c-1.1,0.1-1.9,1.1-1.8,2.2
		c0.1,0.7,0.1,1.4,0.2,2.1c0.2,1.1,1.2,1.8,2.3,1.7c0,0,0,0,0.1,0c0,0,0,0-0.1,0c-1.1,0.3-1.7,1.4-1.4,2.5c0.2,0.7,0.4,1.4,0.7,2
		c0.4,1,1.5,1.6,2.6,1.2c0,0,0,0,0.1,0c0,0,0,0-0.1,0c-1,0.5-1.3,1.7-0.8,2.7c0.3,0.6,0.7,1.2,1.1,1.8c0.6,0.9,1.8,1.2,2.8,0.7l0,0
		l0,0c-0.9,0.7-1,2-0.3,2.8c0.5,0.5,0.9,1.1,1.4,1.6c0.8,0.8,2,0.9,2.8,0.1l0,0l0,0c-0.7,0.9-0.6,2.1,0.3,2.8
		c0.5,0.4,1.1,0.9,1.7,1.3c0.9,0.6,2.1,0.4,2.8-0.5l0,0l0,0c-0.5,1-0.1,2.2,0.8,2.7c0.6,0.3,1.3,0.6,1.9,0.9c1,0.5,2.2,0,2.6-1
		c0,0,0,0,0-0.1l0,0c-0.3,1.1,0.3,2.2,1.4,2.5c0.7,0.2,1.4,0.4,2.1,0.5c1.1,0.2,2.1-0.4,2.4-1.5l0,0l0,0c-0.1,1.1,0.7,2.1,1.8,2.2
		C40,74,40.7,74,41.4,74c0.1,0,0.2,0,0.3,0s0.2,0,0.3,0c0.7,0,1.4,0,2.1-0.1c1.1-0.1,1.9-1,1.9-2.1l0,0c0,0,0,0,0,0.1
		c0.2,1.1,1.3,1.8,2.4,1.6c0.7-0.1,1.4-0.3,2.1-0.5c1.1-0.3,1.7-1.4,1.4-2.5v-0.1v0.1c0.4,1,1.6,1.5,2.6,1.1
		c0.7-0.3,1.3-0.6,1.9-0.9c1-0.5,1.4-1.7,0.9-2.7l0,0l0,0c0.6,0.9,1.9,1.1,2.8,0.5c0.6-0.4,1.2-0.8,1.7-1.3c0.9-0.7,1-1.9,0.3-2.8
		l0,0l0,0c0.8,0.8,2.1,0.8,2.8,0c0.5-0.5,1-1,1.4-1.6c0.7-0.8,0.6-2.1-0.2-2.8l0,0l0,0c0.9,0.6,2.2,0.3,2.8-0.6
		c0.4-0.6,0.7-1.2,1.1-1.8c0.5-1,0.2-2.2-0.8-2.7c1,0.4,2.2-0.1,2.6-1.1c0.3-0.7,0.5-1.3,0.7-2c0.3-1.1-0.3-2.2-1.3-2.5
		c0,0,0,0-0.1,0c0,0,0,0,0.1,0c1.1,0.2,2.1-0.5,2.3-1.6c0.1-0.7,0.2-1.4,0.3-2.1C73.9,44,73.1,43.1,72,42.9z M69.9,44.7
		c-0.1,0.6-0.2,1.2-0.3,1.9c-0.2,1,0.5,2,1.4,2.3c-1-0.2-2,0.4-2.3,1.4c-0.2,0.6-0.4,1.2-0.6,1.8c-0.4,0.9,0,2,0.9,2.5
		c-0.9-0.4-2,0-2.5,0.9c-0.3,0.5-0.6,1.1-1,1.6c-0.6,0.9-0.4,2,0.4,2.6c-0.8-0.6-2-0.4-2.6,0.4c-0.4,0.5-0.8,0.9-1.3,1.4
		c-0.7,0.7-0.8,1.9-0.1,2.6c-0.7-0.7-1.8-0.8-2.6-0.1c-0.5,0.4-1,0.8-1.5,1.1c-0.8,0.6-1.1,1.7-0.6,2.6c-0.6-0.8-1.7-1.1-2.6-0.7
		c-0.6,0.3-1.1,0.5-1.7,0.8c-1,0.4-1.4,1.5-1.1,2.5c-0.4-1-1.4-1.5-2.4-1.2c-0.6,0.2-1.2,0.3-1.8,0.4c-1,0.2-1.7,1.1-1.6,2.1
		c-0.2-1-1-1.7-2-1.7h-0.1c-0.7,0-1.4,0-2.1,0.1c-0.1,0-0.2,0-0.3,0c-0.6,0-1.2,0-1.9-0.1c-1-0.1-1.9,0.6-2.1,1.6
		c0.1-1-0.6-1.9-1.6-2.2c-0.6-0.1-1.2-0.3-1.8-0.5c-1-0.3-2,0.2-2.4,1.1c0.3-1-0.1-2-1.1-2.4c-0.6-0.3-1.1-0.5-1.7-0.8
		c-0.9-0.5-2-0.2-2.6,0.6c0.5-0.9,0.2-2-0.6-2.6c-0.5-0.4-1-0.7-1.5-1.1c-0.8-0.6-1.9-0.6-2.7,0.1c0.6-0.8,0.6-1.9-0.1-2.7
		c-0.4-0.5-0.8-0.9-1.2-1.4c-0.7-0.8-1.8-1-2.6-0.4c0.8-0.6,1-1.7,0.5-2.6c-0.3-0.5-0.6-1.1-0.9-1.6c-0.5-0.9-1.6-1.3-2.5-0.9
		c0.9-0.4,1.3-1.5,1-2.5c-0.2-0.6-0.4-1.2-0.6-1.8c-0.3-1-1.3-1.6-2.3-1.4c1-0.3,1.6-1.2,1.5-2.2c-0.1-0.6-0.2-1.2-0.2-1.9
		c-0.1-1-0.9-1.8-1.9-1.8c1-0.1,1.8-0.9,1.9-1.9c0-0.6,0.1-1.2,0.1-1.9c0.1-1-0.6-1.9-1.5-2.2c1,0.1,1.9-0.5,2.2-1.5
		c0.2-0.6,0.3-1.2,0.5-1.8c0.3-1-0.2-2-1.1-2.4c1,0.3,2-0.1,2.5-1c0.3-0.6,0.6-1.1,0.9-1.7c0.5-0.9,0.3-2-0.5-2.6
		c0.9,0.5,2,0.3,2.6-0.5c0.4-0.5,0.8-1,1.2-1.4c0.7-0.8,0.6-1.9,0-2.7c0.7,0.7,1.9,0.7,2.7,0c0.5-0.4,0.9-0.8,1.4-1.2
		c0.8-0.6,1-1.8,0.5-2.6c0.6,0.8,1.7,1.1,2.6,0.6c0.5-0.3,1.1-0.6,1.6-0.9c0.9-0.5,1.3-1.5,1-2.5c0.4,0.9,1.5,1.4,2.5,1.1
		c0.6-0.2,1.2-0.4,1.8-0.5c1-0.3,1.6-1.2,1.5-2.2c0.2,1,1.2,1.6,2.2,1.5c0.6-0.1,1.2-0.1,1.9-0.2c1-0.1,1.8-0.9,1.9-1.9
		c0,1,0.8,1.8,1.9,1.9c0.6,0,1.2,0.1,1.9,0.2c1,0.1,2-0.5,2.2-1.5c-0.2,1,0.4,2,1.4,2.2c0.6,0.2,1.2,0.4,1.8,0.6c1,0.3,2-0.1,2.5-1
		c-0.4,0.9,0,2,1,2.5c0.6,0.3,1.1,0.6,1.6,0.9c0.9,0.5,2,0.3,2.6-0.5c-0.5,0.8-0.3,2,0.4,2.6c0.5,0.4,1,0.8,1.4,1.2
		c0.8,0.7,1.9,0.7,2.7,0c-0.7,0.7-0.7,1.9-0.1,2.7c0.4,0.5,0.8,1,1.1,1.5c0.6,0.8,1.8,1.1,2.6,0.5c-0.8,0.6-1.1,1.7-0.6,2.6
		c0.3,0.5,0.6,1.1,0.8,1.7c0.4,1,1.5,1.4,2.5,1.1c-1,0.4-1.5,1.4-1.2,2.4c0.2,0.6,0.3,1.2,0.5,1.8c0.2,1,1.2,1.6,2.2,1.5
		c-1,0.2-1.7,1.1-1.6,2.1c0.1,0.6,0.1,1.2,0.1,1.9c0,1,0.8,1.8,1.8,1.9C70.8,43,70,43.7,69.9,44.7z M42,15.8
		c-11.5,0-21.2,7.5-24.6,17.8l0,0C16.5,36.2,16,39,16,41.8c0,14.3,11.7,26,26,26s26-11.7,26-26S56.3,15.8,42,15.8z M40.9,17.9
		L20.3,31.6C24,23.8,31.8,18.3,40.9,17.9z M43.1,65.7L63.7,52C60,59.8,52.2,65.3,43.1,65.7z M64.8,49.3L40.1,65.7
		C27.7,64.7,18,54.4,18,41.8c0-2.6,0.4-5.1,1.2-7.5l24.7-16.4C56.3,18.9,66,29.2,66,41.8C66,44.4,65.6,46.9,64.8,49.3z M49.4,40.5
		c0.4-1.5-0.1-3.1-1.1-4.3c-0.7-0.9-1.9-1.4-3.1-1.7c0.1-0.5,0.2-0.9,0.2-1.3c0.1-1.4-0.4-2.9-1.3-4.1c-1-1.4-2.4-1.6-3.9-1.6
		c-0.2,0-0.3,0.3-0.2,0.5c1.2,1.3,2,3.3,1.2,5c-0.2,0.5-0.6,0.9-0.9,1.3c-1.4,0.2-2.8,0.7-4,1.8c-1.1,1-1.7,2.6-1.7,4.1
		c0,0.2,0,0.4,0,0.5c-3.7,0.7-4.6,6-2.1,8.4c3.5,3.4,8.6,3.7,13.3,3.3c1.2-0.1,2.3-0.4,3.3-1c0.2,0,0.3-0.1,0.5-0.1
		c3-0.6,4.6-4,3.9-6.8C52.8,42.4,51.2,41,49.4,40.5z"/>
</g>
</svg>
