<?xml version="1.0" encoding="UTF-8"?><svg id="logo" xmlns="http://www.w3.org/2000/svg" viewBox="0 0 1080 1920"><defs><style>.cls-1{fill:#202020;stroke-width:0px;}</style></defs><path class="cls-1" d="M948.13,1284.75c-1.27-1.92-2.54-3.84-3.88-5.87,1.12-.18,1.87-.29,2.14-.34-.22-4.71-.42-8.98-.62-13.26.29-.08.58-.16.87-.24.73.77,1.47,1.54,2.2,2.31.24-.26.49-.51.73-.77-1.49-1.66-2.98-3.32-4.82-5.38,1.15.49,1.73.74,2.5,1.08-.84-2.34-1.57-4.37-2.32-6.44.71-.16,1.24-.28,1.81-.41-.82-1.14-1.58-2.19-2.33-3.24.15-.15.31-.3.46-.46,1.43.73,2.85,1.46,4.18,2.14-1.18-3.77-2.15-6.88-3.08-9.83,1.22-.98,2.1-1.69,2.83-2.28-.52-1.46-.97-2.71-1.46-4.05,1.01-.08,1.65-.14,1.23-.1,0-3.38-.2-6.43.08-9.44.16-1.78,1.6-3.52,1.54-5.24-.13-4.34,2.6-8.2,6.73-7.97,7.95.43,12.34-3.95,15.27-10.53,6.42-14.42,3.53-31.61-7.42-42.94-3.21-3.32-6.93-6.13-10.59-9.32,14.62-1.7,24.27-9.48,28.71-23.32,3.84-11.97,3.48-23.47-6.15-32.84-3.23-3.14-4.11-6.67-4.87-10.74-.81-4.33-2.31-8.54-3.62-12.76-.19-.61-.96-1.25-1.6-1.47-3.12-1.07-.78-2.2-.18-3.14-1.56-1.76-2.82-3.78-4.61-5.06-1.85-1.32-4.23-1.9-6.35-2.88-.54-.25-1.26-.67-1.38-1.14-.72-2.84-2.92-3.44-5.32-3.52-2.76-.09-3.36-1.8-3.52-4.04-.27-3.88,1.48-5.38,7.18-6.89,10.38-2.76,20.82-5.37,31.04-8.66,10.34-3.33,15.08-11.3,13.11-20.94-.58-2.87-1.26-5.91-2.74-8.36-5.61-9.31-10.71-19.13-17.56-27.46-23.97-29.15-48.53-57.81-73.05-86.51-3.41-4-3.84-8.05-2.12-12.4,2.91-7.38,5.91-14.77,9.52-21.83,9.34-18.25,11.99-37.15,6.94-57.11-1.94-7.7-4.41-15.42-5.06-23.26-2.18-26.39-8.32-51.85-16.53-76.89-2.91-8.88-6.13-17.65-9-26.54-1.16-3.61.74-6.41,4.34-7.23.22.77.44,1.55.67,2.38,2.37-3.42,4.6-6.64,6.86-9.92.9.04,2.14.1,3.38.15-4.42-2.55-2.84-2.77-1.19-7.18,1.47-3.94,2.63-8,3.93-12.03-1.31-.27-2.19-.46-3.06-.64-.21-.36-.41-.71-.62-1.07,1.74-1.59,3.48-3.18,5.44-4.98.64,1.45.91,2.06,1.1,2.5,1.29-2.37,2.56-4.7,3.91-7.17-.2-.1-1.13-.56-2.43-1.2,1.16-1.23,2.04-2.17,3.39-3.61.54,2.17.88,3.55,1.22,4.93,2.14-6.17,4.25-12.25,6.35-18.32.11.07.62.43,1.18.82.58-1.53,1.08-2.83,1.57-4.12-1.32.57-2.42,1.05-3.53,1.53-.25-.32-.5-.63-.75-.95.9-1.22,1.93-3.56,2.68-3.47,3.56.42,3.63-1.81,4.12-4.19.9-4.37,2.05-8.7,3.09-13.04.26.06.52.12.78.17.15,1.45.29,2.9.44,4.35.28,0,.55-.02.83-.03,0-2.8,0-5.6,0-8.6,1.97.03,2.25-1.18,1.76-3.48-.41-1.89.09-3.96.18-5.96.47.04.94.09,1.41.13-.16.71-.31,1.43-.49,2.14-.21.81-.44,1.62-.77,2.86,3.58-3.43,3.84-5.88,1.98-9.49-.45-.88.15-3.36.79-3.58,3.2-1.09,3.3-3.41,2.69-5.9-.77-3.16-2.46-6.39,2.36-7.86.38-.12.53-1.02.93-1.88-1.75.34-3.1.59-4.96.95.72-1.4.97-2.71,1.77-3.3,3.02-2.24,3.21-4.98,2.84-8.51-.25-2.35-4.41-5.7.91-7.62.33-.12.14-1.93.05-2.93-.3-3.04-.01-5.7,2.53-7.99,2.01-1.81,1.83-3.95-.86-5,1.19-1,2.16-1.81,3.25-2.73-4.17-2.8-4.47-7.68-1.32-10.9.73-.74.92-2.13,1.12-3.26.38-2.18.59-4.4.86-6.61-.85-1.02-1.93-2.31-2.99-3.58.96-1.07,1.72-1.91,2.23-2.49-1.37-.49-3.47-.78-3.55-1.35-.7-5.07-1.98-9.56-7.64-11.22-.41-.12-.76-.7-.99-1.14-1.69-3.32-4.39-3.55-6.41-2.74-1.73-2.56-3.2-6.5-4.62-6.48-2.7.04-3.94-1.71-5.88-2.44-1.41-.54-2.88-.92-4.32-1.37-1.07-.34-2.33-.43-3.18-1.07-3.79-2.88-7.47-5.92-11.35-9.03.49-.37,1.31-.99,2.28-1.73q-12.78-1.42-14.61-3.56c.83-.47,1.64-.93,2.44-1.38-.04-.25-.07-.5-.11-.75-4.65-.28-9.31-.56-13.86-.83.22-1.68.43-3.34.65-5.03-1.87,0-4.05.52-4.43-.09-1.62-2.59-3.48-3.39-6.63-3.84-3.83-.54-7.38-3.02-11.77-4.98-.41-.64-1.41-2.17-2.43-3.74-3.75,2.77-6.79,2.32-8.05-1.18-.89-2.47-2.49-3.24-4.7-3.44-3.01-.27-6.03-.42-9.23-.63-.05-.64-.14-1.7-.26-3.18-2.6,0-5.03-.03-7.45,0-1.8.03-3.34.15-4.4-2.05-.47-.98-2.72-1.42-4.2-1.51-2.06-.12-4.48,1.07-4.59-2.61-.01-.45-1.94-.85-2.98-1.27-.09.25-.19.51-.28.76.61.54,1.21,1.08,1.82,1.62-.28.35-.56.7-.84,1.05-2.2-1.6-4.36-3.26-6.62-4.77-.56-.38-1.63-.64-2.14-.36-3.66,2.02-5.67-.1-7.27-2.9-6.21,2.7-12.8.67-13.96-4.77-1.68,1.24-3.13,2.3-4.78,3.52-2.6-2.26-5.26-4.57-7.52-6.52.07.73.19,2.03.37,3.95-7.44-5.86-15.8-5.51-23.68-7.16.62-.97,1.22-1.91,1.36-2.13-3.34-.32-7.05-1.69-9.99-.73-4.75,1.56-7.83-2.11-11.94-2.52-4.63-.46-8.96-3.89-13.4-6.02-.66,1.67-.86,2.89-1.22,2.93-1.09.15-2.25-.14-3.38-.27.43-3.77-2.31-.89-3.53-1.71.16-.69.34-1.45.6-2.57-1.44.26-2.6.3-3.64.68-3.91,1.44-7.17-.65-9.45-2.91-2.12-2.09-3.6-2.75-6.24-1.72-3.13,1.21-12.66-3.41-14.09-6.65-.06-.14-.35-.19-.53-.29.02.31.05.62.07.93-4.21.17-8.43.4-12.64.49-2.02.04-4.18-.7-6.03-.19-5.7,1.56-10.75,1.24-15.57-2.7-1.54-1.26-4.36-1.75-6.4-1.41-2.69.45-5.15,3.04-7.92.19-.04-.04-.54.25-.72.47-1.92,2.28-3.55,1.15-5.66,0-3.51-1.91-7.11-3.96-11.5-1.75-1.96.99-4.38,1.41-6.6,1.47-2.25.07-4.52-.63-7.75-1.14-1.61-2.35-8.42-4.53-12.52-3.23-1.18.37-2.47.46-3.72.52-2.38.1-4.77.15-7.15.11-4.53-.08-9.07-.13-13.59-.41-2.3-.15-4.57-.79-6.86-1.2-.16.32-.32.63-.48.95.74,1.15,1.48,2.31,2.86,4.46-3.47-1.29-5.95-2.21-9.18-3.41,1.35-.75,2.08-1.16,2.8-1.57-.26-.31-.52-.62-.78-.92-2.19,1.64-4.38,3.27-6.68,4.99,1.56.25,2.96.48,4.36.71-.07.34-.13.69-.2,1.03-2.33-.38-4.66-.75-7.67-1.24,1.23-.89,1.7-1.24,2.3-1.68-.49-.36-1-.98-1.27-.89-3.46,1.17-7.24-2.81-10.63.7-.42.43-1.9-.27-2.89-.25-4.98.09-9.95.17-14.92.47-.81.05-1.54,1.23-2.33,1.86-1.18.94-2.34,1.91-3.6,2.73-.41.27-1.11.11-2.39.19.92-1.15,1.42-1.77,1.88-2.35-.52-.2-1.19-.46-2.08-.8.79-.89,1.41-1.59,2.57-2.89-4.8,1.26-8.35,2.76-9.09,6.19-2.52,0-4.38-.02-6.24,0-.74,0-1.72.44-2.17.11-4.6-3.44-7.84-.86-10.46,2.02-1.42-.96-2.53-2.22-3.78-2.38-.89-.11-1.97,1.26-2.96,1.96l.4.54c1-.37,1.99-.74,3.51-1.3-2,3.76-4.58,4.19-7.17,2.31-1.32-.96-3.25-1.32-4.94-1.47-2.63-.23-5.21-.06-5.79,3.51-.08.48-1.64.73-2.54,1.03-.09.03-.3-.3-.98-1.03.89-.31,1.83-.63,2.78-.96-.24-.31-.47-.62-.71-.93-5.99,1.65-12.34,1.18-18.11,3.98-.02-.09.12.49.43,1.79-2.76-.57-5.12-1.05-7.48-1.54-.89-.5-2.11.33-3.05.08-3.63-.97-6.31-.47-7.7,3.47-.1.29-1.72.04-2.97.04-1.17.31-2.78,1.09-4.4,1.09-1.8,0-3.59-.71-4.5-.91-.64,1.9-1.15,3.43-1.46,4.38-4.2-1.3-7.53-1.19-10.93-.23-4.27,1.21-8.58,3.33-12.84,3.28-4.32-.06-7.32,1.6-10.49,3.75-.53.36-1.42,1.06-1.59.93-3.4-2.77-4.81,1.18-7.21,1.66l.18.97c1.14-.13,2.28-.27,4.28-.5-.86,1.22-1.29,2.45-1.81,2.49-3.55.25-7.11.21-10.67.38-.85.04-1.68.56-2.51.85.06.17.12.33.18.5,1.44.1,2.89.2,4.33.29.06.37.13.74.19,1.12-1.38.38-2.77,1.11-4.15,1.09-5.83-.07-11.99-2.56-17.02,2.64-.22.23-.89.03-.43.03-.87,2.13-1.51,3.71-2.15,5.29l-.83-.24c-.4-1.31-.8-2.63-1.22-4.01-.39.91-.78,1.82-1.58,3.65-.07-1.57-.09-2.09-.11-2.36-1.71.51-3.53.86-5.17,1.6-1.56.71-3.21,1.59-4.33,2.83-1.62,1.79-6.36,2.7-8.43,1.33-.82,1.02-1.54,2.11-2.44,3.01-1.58,1.57-3.27,3.03-5.19,4.8-.13-.4-.47-1.47-.51-1.57-1.69-.32-2.92-.55-4.09-.76-2.36,1.41-5.26,3.22-8.26,4.88-1.2.67-3.08.63-3.76,1.56-.57.78.17,2.5.33,3.83-.99-.14-2.23-.72-2.88-.32-4.35,2.67-8.54,5.6-12.86,8.33-2.02,1.28-4.12,2.51-6.34,3.39-2.33.93-5.07,1-7.21,2.2-2.15,1.21-3.56,4.41-5.69,4.86-5.84,1.24-8.81,7.62-15.03,7.8-.16,0-.27.56-.46.82-1.23,1.71-2.42,3.45-3.74,5.09-.37.46-1.12.61-1.69.9.1-.78.2-1.56.29-2.33-3.84.72-3.67.77-4.59,4.27-.29,1.09-1.74,1.92-2.76,2.75-.4.32-1.26.11-1.6.46-4.41,4.41-8.76,8.88-13.08,13.3.53.09,1.24.22,2.41.42-.59,1.27-1.09,2.35-1.6,3.43-.22-.09-.43-.18-.65-.26,0-.55,0-1.1,0-2.7-2.37,1.93-4.25,3.31-5.94,4.89-3.84,3.59-7.24,7.76-11.47,10.77-3.18,2.26-4.97,5.38-7.04,8.25-2.37,3.29-4.66,6.03-8.94,6.35-.22.02-.41.3-.99.74,1.5.22,2.51.36,3.51.51-.94,1.06-2.14,1.02-2.91,1.58-1.97,1.44-3.98,2.95-5.52,4.8-.86,1.03-.71,2.85-1.17,4.26-1.48,4.59-6.65,6.15-8.16,11.46-1.89,6.64-7.05,12.1-13.06,16.09-2.83,1.88-2.82,4.14-1.84,6.85.57,1.58,1.1,3.17,1.3,3.74-1.26.84-2,1.08-2.29,1.58-2.41,4.21-4.73,8.46-6.57,11.79.44,1.77,1.28,3.25.86,3.83-2.39,3.33-5.34,6.29-7.58,9.7-1.78,2.71-3.07,5.83-4.09,8.93-.49,1.49.73,3.56.2,5-2.45,6.6-4.29,13.76-8.27,19.35-2.52,3.53-1.71,4.09.57,5.24-1.01,1.98-2.05,3.62-2.71,5.39-.9,2.42-1.26,5.07-2.35,7.39-.95,2.03-2.58,3.73-4.31,6.15,1.76-.43,2.85-.7,4.88-1.2-1.05,1.29-1.49,1.8-1.9,2.34-1.54,2.05-3.25,4.01-4.49,6.23-.38.68.34,2.23.96,3.1.3.42,1.53.17,3.12.28-1.17-1.09-1.75-1.62-2.44-2.26,1-1.38,1.92-2.67,2.97-4.13.35,3.93,1.42,7.87-3.91,9.24,2.89,4.37-.48,6.74-3.14,9.8,4.7,1.16,3.44,3.44,1.68,5.76-1.95,2.57-1.41,5.25-.61,8.07.36,1.26.31,2.77.02,4.07-1.4,6.22-3.01,12.38-4.38,18.61-.17.78.45,2.07,1.11,2.63,2.42,2.01,2.05,4.36-.66,6.12-1.05.68-2.15,3.42-1.82,3.73,3.03,2.85,1.47,6.35.59,8.88-.88,2.53-2,4.24.77,5.85-1.23,1.55-2.88,2.67-2.98,3.92-.31,3.66-2.54,7.21-.76,11.05.29.62-.19,1.61-.36,2.42-1,4.82-2.01,9.64-3.25,15.58,1.85-1.57,2.74-2.32,3.85-3.27-.78,7.44-1.52,14.46-2.26,21.47.43.04.86.08,1.29.12.43-2.22.86-4.43,1.29-6.64.36,0,.72.01,1.08.02.14,2.05.6,4.14.36,6.14-.46,3.93-1.38,7.81-1.93,11.73-.1.69.7,1.5,1.09,2.26l1.06-.28c0,4.57-.08,9.14.05,13.71.04,1.51,1.43,3.44.87,4.44-4.31,7.69,3.32,14.55,1.32,21.99-.05.2.68.54.69.83.06,1.42.49,3.11-.11,4.21-1.18,2.13-1.65,3.65.27,5.73,1.38,1.5,2.7,3.69,2.76,5.62.1,3.43-.91,6.88-1.17,10.35-.08,1.06.65,2.25,1.19,3.28.66,1.26,1.6,2.38,2.26,3.65.63,1.22,1.05,2.56,1.57,3.84.19-.09.38-.18.57-.27-.28-1.35-.55-2.7-.83-4.05l1.3-.28c.52,2.41.94,4.85,1.61,7.22.53,1.87.95,4.03,2.17,5.39,3.74,4.16,3.69,6.28-.66,9.06,1.85,1.37,4.8,2.43,5.46,4.29,1,2.85,5.43,4.94,2.62,8.97-.16.23,1.14,1.42,1.69,2.21.88,1.3,2.57,2.76,2.4,3.94-.77,5.35,1.21,9.03,5.6,11.86.63.41.53,1.95.77,2.97-.34.07-.68.13-1.03.2-.83-.68-1.66-1.37-2.49-2.05.47,1.82,1.69,3.14,2.34,4.7.65,1.58.56,3.46,1.11,5.1.74,2.24,2.52,4.38,2.54,6.57.05,5.31.75,6.91,5.82,8.82-.07,1.47-.8,3.47-.09,4.42,2.49,3.37,2.24,7.37,3.39,11,1.22,3.84,3.98,7.18,6,10.77.42.74.55,1.63.96,2.91-1.84-.59-2.94-.94-4.05-1.3.91,1.36,2.33,3.11,3.2,2.86,2.94-.82,2.54.99,2.69,2.63.28,3.13.6,6.26.9,9.39.34-.35.68-.7,1.02-1.05,1.67.87,3.34,1.75,5.01,2.62-.03.27-.05.54-.08.81-1.39,0-2.78,0-3.57,0,.81,2.72,1.75,5.53,2.47,8.39.64,2.55.58,5.17,3.72,6.57,1.26.56,1.75,2.88,2.52,4.44.1.21-.17.6-.36,1.18-.94-.78-1.72-1.43-2.49-2.07-.33.24-.65.48-.98.72,6.3,3.19,5.61,9.7,8.01,14.75,0-.5,0-1.01,0-2.69,3.21,5.7,6.31,10.21,8.37,15.16,2.18,5.23,4.3,10.22,8.61,14.17,1.43,1.31,2.97,4.56,2.32,5.63-1.23,2.02.3,2.23.66,3.41,1.57,5.11,4.32,9.4,7.08,13.9,1.34,2.18,1.29,4.64,4.48,4.3-.22.71-.37,1.16-.6,1.9,1.77-.51,3.08-.88,5.27-1.5,0,2.56-.12,4.66.03,6.75.24,3.34-.31,6.85,4,8.7,1.39.6,1.78,3.56,2.61,5.45.54,1.22.89,2.57,1.63,3.65,2.33,3.36,6.41,5.45,7.18,9.97.1.56.75,1.01,1.06,1.56,1.68,2.88,2.87,6.23,5.12,8.54,2,2.06,2.34,4.46,3.47,6.69.46.91,2.38,1.07,4.42,1.89.3.78.95,2.5,1.67,4.38-.91-.37-1.59-.65-1.88-.77,2.71,6,4.7,12.5,8.4,17.8,2.05,2.94,1.89,9.34,8.37,8.25.33-.06.93,1.33,1.38,2.06.72,1.2,1.49,2.37,2.1,3.62,1.02,2.1,2.45,4.18,2.78,6.4,1.02,6.98,1.66,14.02,2.34,21.04,2.6,26.62,4.21,53.26,1.93,79.99-.07.8.08,1.61.14,2.61.82-.25,1.32-.37,1.79-.54,20.2-7.55,41.27-10.41,62.65-11.01,34.66-.99,68.52,4.26,101.93,13.33,23.38,6.35,45.99,14.54,66.31,27.83,12.53,8.2,24.54,17.32,36.14,26.8,29.43,24.04,55.34,51.69,79.83,80.63,37.04,43.76,70.59,90.09,101.12,138.62.81,1.28,1.66,2.53,2.49,3.8-.62-7.95-1.88-15.52-2.81-23.13-4.13-33.76-8.39-67.51-12.14-101.31-2.13-19.19-1.94-38.47,1.24-57.58,1.06-6.36,3-12.58,4.54-18.86.48-.04.97-.09,1.45-.13,1.04,1.3,2.08,2.61,3.07,3.86.17-.5.37-1.08.64-1.86.19,1.25.35,2.29.58,3.85.88-1.05,1.4-1.68,1.58-1.9,4.02.46,4.49,5.84,9.17,5.46,1.6-.13,3.56.99,4.92,2.07,1.5,1.19,2.5,3.01,4.08,5.01.22-1.75.32-2.58.48-3.82,1.54,2.69,2.79,4.88,4.22,7.38,1.01-1.12,1.79-1.99,2.52-2.81.23,1.22.44,2.31.75,3.99-.17.16-.98.91-1.8,1.66,1.67.29,3.15-.24,4.65-.32.7-.04,1.57.66,2.16,1.23,2.04,2.01,4.23,6.03,5.92,5.81,3.84-.5,4.75,1.32,5.66,4.48.43-1.71.73-2.93,1.03-4.15.28.06.57.13.85.19,0,2.36,0,4.72,0,7.16,1.04-.37,2.15-.77,3.28-1.18.68,2.7,1.3,5.13,1.99,7.86,1.16-.21,2.72-.5,4.28-.78-.55.45-1.11.91-1.66,1.36.65.76,1.31,1.52,1.96,2.28l1.52-1.51c-.64.34-1.28.68-1.86.99,2.78,1.77,4.9,5.58,9.02,2.3,0,2.65,0,4.62,0,6.69,1.55-.43,2.64-.74,4.45-1.24-1.42,4.13,4.37,1.91,4.28,5.79-.02.85,4.42,1.8,6.73,2.68-.95,1.5-1.86,2.94-3.27,5.16,2.51-1.49,4.02-2.38,6.16-3.65,0,2.96,0,5.04,0,8.26.93-2.1,1.38-3.11,1.91-4.31.18,1.16.33,2.14.51,3.29,1.01-.43,1.89-.81,2.76-1.18,1.91,4.66,3.62,6.35,4.82,4.93-.58-.86-1.15-1.7-1.78-2.62,4.19-.75,3.42,2.1,3.37,4.33,1.3-.83,2.32-1.47,3.4-2.15.18.84.34,1.55.52,2.37.55-.8,1-1.47,1.7-2.49.31,2.47.54,4.35.84,6.71,1.46-1.21,2.31-1.91,3.8-3.14-.59,1.92-.94,3.06-1.28,4.18,1.24.62,2.32,1.16,3.36,1.67.64-.9,1.14-1.62,1.65-2.34.2.12.4.25.59.37-.64,1.31-1.27,2.63-1.84,3.79,1.02.47,2.05.94,3.18,1.47.35-.83.79-1.87,1.47-3.49.79,2.41,1.43,4.35,2.14,6.5,1.32-.86,2.14-1.4,3.36-2.19-.99,6.25,7.04,2.29,6.91,7.51,1.2-.78,2-1.29,2.83-1.83.12.96.25,1.96.46,3.53.82-1.5,1.32-2.41,2.37-4.31,0,2.66,0,4.22,0,6.62,1.07-1.22,1.59-1.81,2.32-2.65,1.64,2.09,3.23,4.1,4.81,6.11,2.6.8,5.28,1.93,7.46,3.68,1.96,1.57,3.29,4.06,6.47,2.32-.09,1.23-.17,2.39-.2,2.81,1.35-.29,2.81-1.08,3.8-.69,1.17.45,1.94,1.93,2.9,2.97.8-1.25,1.62-2.51,2.44-3.77l.67.13v5.31c4.45-3.12,6.26,2.74,9.68,2.48-.42-.95-.8-1.74-1.07-2.57-.02-.05,1.1-.66,1.23-.53.6.59,1.21,1.28,1.51,2.06.32.84.29,1.81.54,3.67.85-2.34,1.36-3.75,2.18-6.02.7,3,1.18,5.01,1.81,7.7,1.44-2.08,2.46-3.56,3.92-5.69.62,2.33.99,3.72,1.23,4.62,4.66-1.12,9.04-2.18,13.27-3.2.02.2.13,1.29.24,2.38.34.04.67.07,1.01.11.74-1.63,1.49-3.27,2.45-5.38.18,1.21.27,1.81.29,1.97,2.11-1.37,4-3.43,6.2-3.84,3.36-.63,5.38-1.67,4.8-5.74,1.62,1.23,2.85,2.17,4.74,3.6-.37-2.56-.62-4.23-.9-6.18.84.73,1.37,1.18,1.82,1.57,1.63-2.83,3.17-5.5,4.32-7.49,2.13-.97,4.41-1.31,5.14-2.55.62-1.07-.54-3.18-.92-4.83.18-.1.35-.19.53-.29.85,1.38,1.7,2.76,2.53,4.1.49-2.89.95-5.61,1.32-7.83,2.14-.49,3.78-.86,5.36-1.22-1.69-5.53,3.97-8.97,3.87-14.87,1.09,1.57,1.57,2.25,2.39,3.43.45-3.46-3.69-7.11.66-8.88.44-1.98.81-3.61,1.31-5.82-1.54-1.51-1.75-3.26,1.54-3.7-.44-1.63-.82-3.01-1.2-4.4.24-.08.48-.16.72-.23.5.88,1,1.75,1.5,2.63.37-.13.74-.26,1.11-.39-.79-2.91-1.57-5.82-2.37-8.77.56-.13,1.59-.37,2.68-.62-.81-1.31-1.55-2.49-2.43-3.91,1.47,0,2.36,0,3.48,0-.99-1.42-1.79-2.56-2.35-3.37,1.42-2.13,2.67-4,4.36-6.55-1.81.71-2.69,1.05-3.71,1.45-.5-1.47-.89-2.63-1.34-3.95,1.07.24,1.91.43,2.81.63-1.51-2.86-2.88-5.45-4.25-8.05.39-.27.78-.54,1.17-.81l1.13,2.37,1.09-.58c-1.24-4.68-2.49-9.36-3.62-13.62-.09-.05.65.35,1.38.75.24-.19.48-.38.73-.57-1.1-2.1-2.2-4.19-3.3-6.29.27-.16.53-.31.8-.47.45.68.91,1.36,1.01,1.51,1.23-1.12,2.25-2.06,3.27-3-.41.56-.82,1.13-1.23,1.69-1.03-1.21-2.06-2.42-3.09-3.64.38-.56.76-1.12,1.14-1.67,1.06-.32,2.11-.64,2.65-.81,0-6.28,0-12.44,0-18.39.06.02.94.25,1.95.52-1.26-5.57-2.43-10.76-3.68-16.32,3.62.63,4.85-.4,3.12-3.55-.85-1.55-2.05-3.04-2.38-4.7-.41-2.06.33-4.39-.21-6.38-.49-1.8-2.03-3.3-3.73-5.86,3.04,1.46,5.09,2.44,7.15,3.43.09-.17.17-.35.26-.52-1.19-.9-2.37-1.81-4.32-3.3,1.03-.41,1.73-.7,3.18-1.28-6.73-.79-2.22-5.35-4.3-7.8,1.6,1.27,2.85,2.26,4.1,3.25.14-.2.28-.4.41-.61l-1.86-5.29c2.4.03,1.39-1.36.68-2.08-.4-.4-1.52-.07-2.3-.07.89-2.8,1.09-2.85,3.72-.83.29-.22.58-.44.87-.66ZM139.6,547.51q.76,3.32-5.68,8.94c1.78-2.8,3.56-5.6,5.68-8.94ZM324.29,405.81c-.1-.6-.2-1.2-.31-1.8,2.37-.36,4.75-.72,7.12-1.07l.21,1.37c-2.34.5-4.69,1-7.03,1.51ZM93.2,702.12c-.51-.14-1.02-.29-1.53-.43.69-2.52,1.38-5.04,2.08-7.55.51.12,1.01.25,1.52.37-.69,2.54-1.38,5.07-2.07,7.61Z"/></svg>