<?xml version="1.0" encoding="UTF-8"?><svg id="logo" xmlns="http://www.w3.org/2000/svg" viewBox="0 0 1080 1920"><defs><style>.cls-1{fill:#202020;stroke-width:0px;}</style></defs><path class="cls-1" d="M197.31,1196.23c-19.96-6.55-38.53-16.25-33.72-40.76,4.01-20.37,16.38-41.9,25.39-60.39-22.75-1.54-46.62-3.79-55.57-28.63-8.81-24.45,13.8-41.11,26.87-58.6,14.28-19.1,29.77-42.32,39.32-64.17,10.36-23.69-10.58-44.65-16.21-67.25-6.44-25.88-.42-52.82,1.36-78.93,2.03-29.72,7.51-60.35,7.07-90.02-.29-19.71-11.31-37.42-12.06-56.93.03.82,3.28-7.43,3.33-8.01.59-5.97-1.71-13.74-2.11-19.74-.77-11.78-2.28-22.97,1.5-33.85-5.36-9.3,1.39-36.33,3.03-47.26,1.59-10.62.12-18.86.53-28.71.34-8.26,6.81-17.53,10.66-24.61,9.61-17.66,24.72-25.15,38.79-38.54,9.35-8.9,19.7-19.1,30.84-23.8.12-1.33.27-3.19.43-5.04.39-.32.79-.64,1.18-.96.57,1.19,1.14,2.37,2.02,4.19,2.92-9.8,13.11-9.44,20.25-14.35,6-4.12,9.58-9.46,17-12.94,19.03-8.92,39.95-15.22,60.15-21.11,51.46-15,100.59-26.44,154.3-29.38-.02.17-.16,1.42-.47,4.2,4.14-2,7.53-3.64,11.33-5.47,1.01.87,2.35,2.04,3.7,3.2,0-.69,0-1.39,0-2.08,20.59-2.47,40.43-2.89,61.09-3.14,5.17-.06,37.87-.76,39.51,3.65,20.03,1.8,37.9,6.24,57.47,9.88,11.18,2.08,31.31,13.57,41.46,12.1,29.05,9.24,58.15,20.07,84.12,36.49,10.38,6.57,15.76,17.03,25.68,24.98,10.17,8.14,16.78,17.16,25.91,25.82q4.08-1.11,5.12,7.36c1.3-.32,2.55-.62,3.72-.9,13.38,17.94,31.73,33.22,39.13,53.84,9.97,27.78,19.03,51.8,23.36,81.47,7.64,52.35,10.17,108.27-8.21,158.17-4.51,12.25-3.12,24.22-5.96,36.5-2.24,9.68-5.83,18.93-7.7,29.41-3.86,21.64-9.74,47.27-18.53,67.26-25.24,57.41-55.12,109.7-64.46,172.86-10.11,68.39,5.64,136.69,29.1,200.73-77.97-11.81-165.03,30.82-221.57,81.78-30.53,27.51-56.32,60.36-80.75,93.25-12.95,17.43-25.35,35.25-37.27,53.39-10.61,16.16-19.74,38.95-33.53,52.43-7.75-67.3-30.19-129.58-58.83-189.87-.81,0-1.63,0-2.44,0-2.7,5.96-2.53,11.35-7.38,16.05-6.98,6.76-21.62,10.9-30.21,15.14-21.87,10.79-44.27,22.16-67.38,30.08-36.59,12.56-97.89,8.48-110.83-37.43-6.23-22.1-2.12-46.55,4.83-67.6,5.2-15.74,8.41-36.16-12-36.28-53.36-.32-36.31-48.99-12.38-77.51Z"/></svg>