<?xml version="1.0" encoding="utf-8"?>
<!-- Generator: Adobe Illustrator 22.1.0, SVG Export Plug-In . SVG Version: 6.00 Build 0)  -->
<svg version="1.1" id="Layer_1" xmlns="http://www.w3.org/2000/svg" xmlns:xlink="http://www.w3.org/1999/xlink" x="0px" y="0px"
	 viewBox="0 0 84 84" style="enable-background:new 0 0 84 84;" xml:space="preserve">
<style type="text/css">
	.st0{fill:#BFBB50;}
</style>
<g id="_x31_-2">
	<path id="shape_1_" class="st0" d="M58.1,54.3l-14.7-7.5l-15-41.3c-1,10.2-0.4,18.5,1.9,24.7c3,8.1,5.7,15,8.2,20.6l10.6,3.7
		c1.6,0.6,2.7,2.2,2.7,3.9v1.3c-1.2,2.8-1.3,6.3-0.1,9.6C54,75.5,60,79,65.2,77.2s7.6-8.5,5.3-14.7C68.3,56.7,63,53.3,58.1,54.3z
		 M64.4,75.3c-4.2,1.5-9-1.5-10.9-6.7S53.4,58,57.6,56.5s9,1.5,10.9,6.7S68.5,73.8,64.4,75.3z"/>
</g>
</svg>
