<?xml version="1.0" encoding="utf-8"?>
<!-- Generator: Adobe Illustrator 22.1.0, SVG Export Plug-In . SVG Version: 6.00 Build 0)  -->
<svg version="1.1" id="Layer_1" xmlns="http://www.w3.org/2000/svg" xmlns:xlink="http://www.w3.org/1999/xlink" x="0px" y="0px"
	 viewBox="0 0 84 84" style="enable-background:new 0 0 84 84;" xml:space="preserve">
<style type="text/css">
	.st0{fill:#BFBB50;}
</style>
<g id="_x31_-1">
	<path id="shape" class="st0" d="M25.9,54.3l14.7-7.5l15-41.3c1,10.2,0.4,18.5-1.9,24.7c-3,8.1-5.7,15-8.2,20.6l-10.6,3.7
		c-1.6,0.6-2.7,2.2-2.7,3.9v1.3c1.2,2.8,1.3,6.3,0.1,9.6C30,75.5,24,79,18.8,77.2s-7.6-8.5-5.3-14.7C15.7,56.7,21,53.3,25.9,54.3z
		 M19.6,75.3c4.2,1.5,9-1.5,10.9-6.7c1.9-5.2,0.1-10.6-4.1-12.1s-9,1.5-10.9,6.7S15.5,73.8,19.6,75.3z"/>
</g>
</svg>
